<svg xmlns="http://www.w3.org/2000/svg" xmlns:xlink="http://www.w3.org/1999/xlink" viewBox="0 0 354.99 119.34"><defs><style>.cls-1{fill:#8959b0;}.cls-2,.cls-3,.cls-4{fill-rule:evenodd;}.cls-2{fill:url(#linear-gradient);}.cls-3{fill:#3c495d;opacity:0.3;}.cls-4{fill:url(#linear-gradient-2);}</style><linearGradient id="linear-gradient" x1="52.25" y1="92.61" x2="83.81" y2="92.61" gradientUnits="userSpaceOnUse"><stop offset="0" stop-color="#8959b0"/><stop offset="1" stop-color="#ca6656"/></linearGradient><linearGradient id="linear-gradient-2" x1="5.88" y1="59.67" x2="137.64" y2="59.67" xlink:href="#linear-gradient"/></defs><g id="Layer_2" data-name="Layer 2"><g id="Object"><path class="cls-1" d="M94.41,82.7l-1.56,4.73h-2L96,72.4h2.34l5.13,15h-2.08l-1.6-4.73Zm4.92-1.52-1.47-4.32c-.33-1-.55-1.88-.78-2.75h0c-.23.9-.47,1.81-.76,2.72l-1.47,4.35Z"/><path class="cls-1" d="M110.06,72.4v8.9c0,3.36,1.5,4.79,3.5,4.79,2.23,0,3.66-1.47,3.66-4.79V72.4h2v8.76c0,4.62-2.43,6.51-5.68,6.51-3.08,0-5.4-1.76-5.4-6.42V72.4Z"/><path class="cls-1" d="M125.4,85.06a6.83,6.83,0,0,0,3.48,1c2,0,3.15-1,3.15-2.57s-.81-2.21-2.84-3c-2.45-.87-4-2.14-4-4.26,0-2.34,1.94-4.08,4.87-4.08a6.8,6.8,0,0,1,3.32.74l-.54,1.58a5.94,5.94,0,0,0-2.85-.71c-2.05,0-2.83,1.22-2.83,2.25,0,1.41.91,2.1,3,2.9,2.54,1,3.83,2.21,3.83,4.41s-1.72,4.33-5.26,4.33a7.75,7.75,0,0,1-3.84-1Z"/><path class="cls-1" d="M142.64,74.05h-4.57V72.4H149.2v1.65h-4.6V87.43h-2Z"/><path class="cls-1" d="M154,72.6a20.33,20.33,0,0,1,3.73-.31c2.07,0,3.41.38,4.34,1.22a3.76,3.76,0,0,1,1.19,2.86,3.94,3.94,0,0,1-2.84,3.83v.07c1.16.4,1.86,1.47,2.21,3a24.05,24.05,0,0,0,1.16,4.13h-2a20,20,0,0,1-1-3.59c-.44-2.08-1.25-2.86-3-2.92h-1.83v6.51H154Zm1.94,6.84h2c2.07,0,3.39-1.13,3.39-2.85,0-1.94-1.41-2.79-3.46-2.81a7.9,7.9,0,0,0-1.92.18Z"/><path class="cls-1" d="M171.65,82.7l-1.56,4.73h-2l5.1-15h2.34l5.13,15h-2.07L177,82.7Zm4.93-1.52-1.47-4.32c-.33-1-.56-1.88-.78-2.75h-.05c-.22.9-.46,1.81-.75,2.72l-1.47,4.35Z"/><path class="cls-1" d="M186,72.4h1.94V85.8h6.43v1.63H186Z"/><path class="cls-1" d="M201.58,72.4v15h-1.94v-15Z"/><path class="cls-1" d="M210.52,82.7,209,87.43h-2l5.11-15h2.34l5.13,15h-2.07l-1.61-4.73Zm4.93-1.52L214,76.86c-.34-1-.56-1.88-.78-2.75h0c-.22.9-.46,1.81-.75,2.72l-1.48,4.35Z"/><path class="cls-1" d="M96,53.78,90.84,33.63h2.75L96,43.82c.6,2.51,1.14,5,1.49,7h.06c.33-2,1-4.4,1.65-7l2.69-10.16h2.72L107,43.85c.57,2.4,1.11,4.79,1.41,6.91h.06c.41-2.21,1-4.45,1.61-7l2.66-10.16h2.66l-5.71,20.15H107l-2.54-10.49a58.5,58.5,0,0,1-1.31-6.58h-.06a63.52,63.52,0,0,1-1.56,6.58L98.67,53.78Z"/><path class="cls-1" d="M135,44.33h-7.83V51.6h8.72v2.18H124.53V33.63h10.89v2.18h-8.28v6.37H135Z"/><path class="cls-1" d="M145.82,33.63h2.6v18H157v2.18H145.82Z"/><path class="cls-1" d="M166.51,33.63h2.6v18h8.61v2.18H166.51Z"/><path class="cls-1" d="M187.2,53.78V33.63H190l6.46,10.19a59.36,59.36,0,0,1,3.62,6.55l.06,0c-.24-2.69-.3-5.14-.3-8.28V33.63h2.45V53.78H199.7l-6.4-10.23a65.54,65.54,0,0,1-3.77-6.72l-.09,0c.15,2.54.21,5,.21,8.31v8.61Z"/><path class="cls-1" d="M223.89,44.33h-7.84V51.6h8.73v2.18H213.45V33.63h10.89v2.18h-8.29v6.37h7.84Z"/><path class="cls-1" d="M234.38,50.61a9.21,9.21,0,0,0,4.67,1.32c2.66,0,4.21-1.41,4.21-3.44s-1.07-3-3.79-4c-3.29-1.16-5.33-2.87-5.33-5.71,0-3.14,2.61-5.47,6.52-5.47a9.17,9.17,0,0,1,4.46,1l-.72,2.12a8,8,0,0,0-3.83-1c-2.75,0-3.8,1.65-3.8,3,0,1.89,1.23,2.81,4,3.89,3.41,1.31,5.14,3,5.14,5.92s-2.3,5.8-7,5.8a10.34,10.34,0,0,1-5.14-1.29Z"/><path class="cls-1" d="M255.7,50.61a9.21,9.21,0,0,0,4.67,1.32c2.66,0,4.21-1.41,4.21-3.44s-1.08-3-3.8-4c-3.28-1.16-5.32-2.87-5.32-5.71,0-3.14,2.6-5.47,6.52-5.47a9.1,9.1,0,0,1,4.45,1l-.71,2.12a8,8,0,0,0-3.83-1c-2.75,0-3.8,1.65-3.8,3,0,1.89,1.23,2.81,4,3.89,3.41,1.31,5.14,3,5.14,5.92s-2.3,5.8-7.05,5.8A10.41,10.41,0,0,1,255,52.79Z"/><path class="cls-1" d="M292.89,33.63v8.43h9.75V33.63h2.63V53.78h-2.63V44.33h-9.75v9.45h-2.6V33.63Z"/><path class="cls-1" d="M319,33.63V45.56c0,4.51,2,6.43,4.69,6.43,3,0,4.9-2,4.9-6.43V33.63h2.63V45.38c0,6.19-3.25,8.73-7.62,8.73-4.12,0-7.23-2.36-7.23-8.61V33.63Z"/><path class="cls-1" d="M342.29,33.9a25.06,25.06,0,0,1,4.75-.42c2.6,0,4.28.45,5.53,1.46a4.23,4.23,0,0,1,1.68,3.56,4.79,4.79,0,0,1-3.41,4.43V43A5.18,5.18,0,0,1,355,48a5.4,5.4,0,0,1-1.7,4c-1.41,1.29-3.68,1.89-7,1.89a30.16,30.16,0,0,1-4-.24Zm2.6,8.25h2.36c2.75,0,4.37-1.44,4.37-3.38,0-2.36-1.8-3.29-4.43-3.29a11.15,11.15,0,0,0-2.3.18Zm0,9.66a13.8,13.8,0,0,0,2.18.12c2.69,0,5.17-1,5.17-3.92,0-2.75-2.36-3.89-5.2-3.89h-2.15Z"/><path class="cls-2" d="M45.53,75.51a119,119,0,0,0-9.29,9.9,47.91,47.91,0,0,0,31.56,24.3C53.3,100,48.81,93.1,45.53,75.51Z"/><path class="cls-3" d="M45.53,75.51a85.1,85.1,0,0,0-9.29,9.9c.33.6.66,1.19,1,1.78a90.17,90.17,0,0,1,8.65-9.82C45.77,76.77,45.65,76.14,45.53,75.51Z"/><path class="cls-4" d="M22.81,79.17C10,63.81-8,47.17,3.84,19,6.92,11.64,15.64,4.42,28,1.3c14.86-3.74,31.93.48,39.07,14,7.67,14.59,6,25.46,0,35.62C50.62,78.74,29.3,76.86,25.84,119.34c-1.69-21.7-1.56-31,14.57-49.49,14.37-16.49,20.08-32.5,4.76-56.24,4.88,15.81.85,33.83-6.81,40.68C32,60,22.09,57.93,21.48,40.14c-6.79,16.92-3.66,28.37,1.33,39Zm9.71-38.8a5.88,5.88,0,1,0,5.88,5.88A5.87,5.87,0,0,0,32.52,40.37Z"/></g></g></svg>